{"title":"Main Krishna Hoon 2013 DVDRip Xvid AC3 ESub (EXD) - Hindi","uid":8237137,"size":736225130,"categoryP":"video","categoryS":"movies","magnet":"?xt=urn:btih:cac0578bf9feb7acd54f982cb6b3292d2b5f4f1e&amp;dn=Main+Krishna+Hoon+2013+DVDRip+Xvid+AC3+ESub+%28EXD%29+-+Hindi&amp;tr=udp%3A%2F%2Ftracker.openbittorrent.com%3A80&amp;tr=udp%3A%2F%2Fopen.demonii.com%3A1337&amp;tr=udp%3A%2F%2Ftracker.coppersurfer.tk%3A6969&amp;tr=udp%3A%2F%2Fexodus.desync.com%3A6969","seeders":1,"leechers":0,"uploader":"SJonam","files":1,"time":1362864244,"description":" &lt;a href=&quot;http://desibbrg.org/images/66952052392581364616.gif&quot; rel=&quot;nofollow&quot; target=&quot;_NEW&quot;&gt;http://desibbrg.org/images/66952052392581364616.gif&lt;/a&gt; &lt;a href=&quot;\nhttp://desibbrg.org/images/17657574800434437551.png&quot; rel=&quot;nofollow&quot; target=&quot;_NEW&quot;&gt;\nhttp://desibbrg.org/images/17657574800434437551.png&lt;/a&gt; &lt;a href=&quot;\nhttp://desibbrg.org/images/71585743793849543350.png&quot; rel=&quot;nofollow&quot; target=&quot;_NEW&quot;&gt;\nhttp://desibbrg.org/images/71585743793849543350.png&lt;/a&gt; &lt;a href=&quot;\nhttp://desibbrg.org/images/26795471077756774100.png&quot; rel=&quot;nofollow&quot; target=&quot;_NEW&quot;&gt;\nhttp://desibbrg.org/images/26795471077756774100.png&lt;/a&gt; &lt;a href=&quot;\nhttp://desibbrg.org/images/51582000014161934223.png&quot; rel=&quot;nofollow&quot; target=&quot;_NEW&quot;&gt;\nhttp://desibbrg.org/images/51582000014161934223.png&lt;/a&gt; &lt;a href=&quot;\nhttp://desibbrg.org/images/76756658554177531794.png&quot; rel=&quot;nofollow&quot; target=&quot;_NEW&quot;&gt;\nhttp://desibbrg.org/images/76756658554177531794.png&lt;/a&gt; &lt;a href=&quot;\nhttp://desibbrg.org/images/05452819114986403212.png&quot; rel=&quot;nofollow&quot; target=&quot;_NEW&quot;&gt;\nhttp://desibbrg.org/images/05452819114986403212.png&lt;/a&gt;\n\nMedia Info - \nVideo - \nCodec ID                                 : XVID\nCodec ID/Hint                            : XviD\nDuration                                 : 2h 2mn\nBit rate                                 : 662 Kbps\nWidth                                    : 688 pixels\nHeight                                   : 304 pixels\nDisplay aspect ratio                     : 2.25:1\nFrame rate                               : 29.970 fps\nColor space                              : YUV\nChroma subsampling                       : 4:2:0\nBit depth                                : 8 bits\nScan type                                : Progressive\nCompression mode                         : Lossy\nBits/(Pixel*Frame)                       : 0.106\nStream size                              : 582 MiB (83%)\nWriting library                          : XviD 1.2.1 (UTC 2008-12-04)\n\nAudio - \nFormat                                   : AC-3\nFormat/Info                              : Audio Coding 3\nMode extension                           : CM (complete main)\nFormat settings, Endianness              : Big\nCodec ID                                 : 2000\nDuration                                 : 2h 2mn\nBit rate mode                            : Constant\nBit rate                                 : 128 Kbps\nChannel(s)                               : 6 channels\nChannel positions                        : Front: L C R, Side: L R, LFE\nSampling rate                            : 48.0 KHz\nBit depth                                : 16 bits\nCompression mode                         : Lossy\nStream size                              : 113 MiB (16%)\nAlignment                                : Aligned on interleaves\nInterleave, duration                     : 64 ms (1.92 video frames)\nInterleave, preload duration             : 192 ms\n\nRipper : K@rtik @ ExD\n\nSeeding 24x7... Extreme Seeding...\n\n\nEnjoy!","torrent":{"xt":"urn:btih:cac0578bf9feb7acd54f982cb6b3292d2b5f4f1e","amp;dn":"Main+Krishna+Hoon+2013+DVDRip+Xvid+AC3+ESub+%28EXD%29+-+Hindi","amp;tr":["udp%3A%2F%2Ftracker.openbittorrent.com%3A80","udp%3A%2F%2Fopen.demonii.com%3A1337","udp%3A%2F%2Ftracker.coppersurfer.tk%3A6969","udp%3A%2F%2Fexodus.desync.com%3A6969"],"infoHash":"cac0578bf9feb7acd54f982cb6b3292d2b5f4f1e","infoHashBuffer":{"type":"Buffer","data":[202,192,87,139,249,254,183,172,213,79,152,44,182,179,41,45,43,95,79,30]},"announce":[],"urlList":[]}}